<svg width="21" height="20" viewBox="0 0 21 20" fill="none" xmlns="http://www.w3.org/2000/svg">
<g clip-path="url(#clip0_71_833)">
<path d="M10.1165 19.9739C4.60923 19.9739 0.129517 15.4937 0.129517 9.98696C0.129517 4.48019 4.60923 0 10.1165 0C15.6237 0 20.1034 4.48019 20.1034 9.98696C20.1034 15.4937 15.6237 19.9739 10.1165 19.9739ZM10.1165 1.44928C5.40875 1.44928 1.57879 5.27923 1.57879 9.98696C1.57879 14.6947 5.40875 18.5246 10.1165 18.5246C14.8242 18.5246 18.6542 14.6947 18.6542 9.98696C18.6542 5.27923 14.8242 1.44928 10.1165 1.44928Z" fill="#72BF39"/>
<path d="M10.1164 17.1015C6.19227 17.1015 3 13.913 3 9.98696C3 6.06087 6.19227 2.87053 10.1164 2.87053C14.0406 2.87053 17.2329 6.0628 17.2329 9.98696C17.2329 13.9111 14.0401 17.1015 10.1164 17.1015ZM10.1164 4.31787C8.99565 4.31787 7.90004 4.6502 6.96813 5.27283C6.03621 5.89546 5.30984 6.78043 4.88085 7.81586C4.45186 8.85128 4.33952 9.99066 4.55803 11.0899C4.77654 12.1892 5.31609 13.199 6.10846 13.9916C6.90083 14.7843 7.91044 15.3242 9.00964 15.5431C10.1088 15.7619 11.2482 15.65 12.2838 15.2214C13.3194 14.7927 14.2046 14.0666 14.8275 13.1349C15.4505 12.2032 15.7832 11.1077 15.7836 9.98696C15.7819 8.48445 15.1843 7.04395 14.1219 5.98151C13.0594 4.91908 11.6189 4.32147 10.1164 4.31981V4.31787Z" fill="#72BF39"/>
<path d="M12.5319 10.7116H10.1165C9.9243 10.7116 9.73998 10.6353 9.60409 10.4994C9.46819 10.3635 9.39185 10.1791 9.39185 9.98696V6.03865C9.39185 5.84646 9.46819 5.66215 9.60409 5.52625C9.73998 5.39036 9.9243 5.31401 10.1165 5.31401C10.3087 5.31401 10.493 5.39036 10.6289 5.52625C10.7648 5.66215 10.8411 5.84646 10.8411 6.03865V9.26232H12.5319C12.7241 9.26232 12.9084 9.33867 13.0443 9.47456C13.1802 9.61046 13.2566 9.79477 13.2566 9.98696C13.2566 10.1791 13.1802 10.3635 13.0443 10.4994C12.9084 10.6353 12.7241 10.7116 12.5319 10.7116Z" fill="#72BF39"/>
</g>
<defs>
<clipPath id="clip0_71_833">
<rect width="20" height="20" fill="white" transform="translate(0.116455)"/>
</clipPath>
</defs>
</svg>
