<svg width="21" height="20" viewBox="0 0 21 20" fill="none" xmlns="http://www.w3.org/2000/svg">
<path d="M14.3439 20C13.5886 19.9944 12.8365 19.8993 12.1034 19.7168C9.57161 19.1044 6.96452 17.5508 4.76354 15.3422C2.56256 13.1337 1.01105 10.5194 0.400205 7.98357C-0.242995 5.31604 0.215744 3.03388 1.69047 1.55537L2.11154 1.13321C2.49358 0.75096 3.01128 0.536278 3.55102 0.536278C4.09076 0.536278 4.60846 0.75096 4.99049 1.13321L7.41022 3.55867C7.79173 3.94157 8.00603 4.46064 8.00603 5.00185C8.00603 5.54305 7.79173 6.06213 7.41022 6.44502L5.98089 7.87754C6.6661 9.08301 7.59806 10.2894 8.69952 11.3937C9.80098 12.498 11.0053 13.4329 12.2072 14.1198L13.636 12.6868C13.825 12.4973 14.0495 12.3469 14.2964 12.2443C14.5434 12.1417 14.8082 12.0889 15.0755 12.0889C15.3429 12.0889 15.6076 12.1417 15.8546 12.2443C16.1016 12.3469 16.326 12.4973 16.515 12.6868L18.9342 15.1123C19.3158 15.495 19.5302 16.0141 19.5302 16.5552C19.5302 17.0964 19.3158 17.6154 18.9342 17.9981L18.5127 18.4203C17.473 19.4646 16.034 20 14.3439 20ZM3.55102 1.98769C3.47392 1.98731 3.39752 2.00235 3.32629 2.03195C3.25507 2.06154 3.19045 2.10509 3.13622 2.16004L2.71466 2.5822C1.61031 3.68939 1.28774 5.48694 1.80636 7.6408C2.3554 9.92248 3.7688 12.2932 5.7858 14.3149C7.80281 16.3366 10.167 17.7522 12.4433 18.3046C14.5921 18.8245 16.3841 18.5012 17.4885 17.394L17.9096 16.9718C18.0196 16.8614 18.0814 16.7118 18.0814 16.5557C18.0814 16.3997 18.0196 16.25 17.9096 16.1396L15.4908 13.7141C15.3807 13.6038 15.2314 13.5419 15.0758 13.5419C14.9201 13.5419 14.7708 13.6038 14.6607 13.7141L12.8494 15.5301C12.7407 15.6391 12.6003 15.7106 12.4483 15.7343C12.2964 15.758 12.1409 15.7326 12.0044 15.6618C10.5195 14.892 9.02257 13.7713 7.67532 12.4206C6.32808 11.0699 5.21262 9.57004 4.4429 8.08136C4.37222 7.94449 4.3468 7.78863 4.37033 7.63632C4.39385 7.48401 4.4651 7.34316 4.57376 7.23414L6.38554 5.41819C6.49556 5.3078 6.55736 5.15814 6.55736 5.00209C6.55736 4.84604 6.49556 4.69637 6.38554 4.58598L3.9663 2.16004C3.9119 2.10518 3.84718 2.0617 3.77589 2.03212C3.70461 2.00253 3.62817 1.98743 3.55102 1.98769Z" fill="#72BF39"/>
<path d="M16.3309 10.0533C16.1388 10.0533 15.9545 9.9768 15.8187 9.84061C15.6828 9.70442 15.6065 9.51971 15.6065 9.32712C15.6051 8.05316 15.0998 6.83178 14.2013 5.93091C13.3028 5.03004 12.0846 4.52324 10.8139 4.52171C10.6218 4.52171 10.4376 4.4452 10.3017 4.30901C10.1659 4.17283 10.0896 3.98812 10.0896 3.79552C10.0896 3.60293 10.1659 3.41822 10.3017 3.28203C10.4376 3.14584 10.6218 3.06934 10.8139 3.06934C14.2554 3.06934 17.0552 5.87725 17.0552 9.32712C17.0552 9.51971 16.9789 9.70442 16.843 9.84061C16.7072 9.9768 16.523 10.0533 16.3309 10.0533Z" fill="#72BF39"/>
<path d="M19.3923 10.0533C19.2002 10.0533 19.016 9.97681 18.8802 9.84062C18.7443 9.70444 18.668 9.51973 18.668 9.32713C18.668 4.98502 15.143 1.45237 10.8139 1.45237C10.6218 1.45237 10.4376 1.37586 10.3017 1.23968C10.1659 1.10349 10.0896 0.918782 10.0896 0.726186C10.0896 0.533589 10.1659 0.348881 10.3017 0.212695C10.4376 0.0765088 10.6218 0 10.8139 0C15.9436 0 20.1167 4.18428 20.1167 9.32713C20.1167 9.51973 20.0404 9.70444 19.9045 9.84062C19.7687 9.97681 19.5844 10.0533 19.3923 10.0533Z" fill="#72BF39"/>
</svg>
