<svg width="24" height="25" viewBox="0 0 24 25" fill="none" xmlns="http://www.w3.org/2000/svg">
<path d="M12 24.5C5.3736 24.5 0 19.1264 0 12.5C0 5.87361 5.3736 0.500006 12 0.500006C18.6264 0.500006 24 5.87361 24 12.5C24 19.1264 18.6264 24.5 12 24.5Z" fill="#72BF39"/>
<path fill-rule="evenodd" clip-rule="evenodd" d="M17.6137 6.91281C16.1257 5.42241 14.1433 4.60161 12.0337 4.59921C7.68732 4.59921 4.14732 8.13681 4.14732 12.4856C4.14732 13.8752 4.50972 15.2336 5.20092 16.4288L4.08252 20.516L8.26332 19.4192C9.41531 20.048 10.7113 20.3792 12.0313 20.3792H12.0337C16.3801 20.3792 19.9177 16.8416 19.9201 12.4928C19.9225 10.3856 19.1041 8.40321 17.6137 6.91281ZM12.0361 19.0472H12.0337C10.8577 19.0472 9.70331 18.7304 8.69771 18.1328L8.45772 17.9912L5.97612 18.6416L6.63852 16.2224L6.48252 15.9752C5.82732 14.9312 5.47932 13.7264 5.47932 12.4856C5.48172 8.87121 8.42172 5.93121 12.0385 5.93121C13.7905 5.93121 15.4345 6.61521 16.6729 7.85361C17.9113 9.09201 18.5929 10.7408 18.5905 12.4904C18.5905 16.1072 15.6481 19.0472 12.0361 19.0472ZM15.6313 14.1368C15.4345 14.0384 14.4649 13.5608 14.2849 13.496C14.1049 13.4312 13.9729 13.3976 13.8409 13.5944C13.7089 13.7912 13.3321 14.2352 13.2169 14.3672C13.1017 14.4992 12.9865 14.516 12.7897 14.4176C12.5929 14.3192 11.9569 14.1104 11.2057 13.4384C10.6201 12.9152 10.2241 12.2696 10.1089 12.0728C9.99371 11.876 10.0969 11.768 10.1953 11.6696C10.2841 11.5808 10.3921 11.4392 10.4905 11.324C10.5889 11.2088 10.6225 11.1272 10.6873 10.9952C10.7521 10.8632 10.7209 10.748 10.6705 10.6496C10.6201 10.5512 10.2265 9.58161 10.0633 9.18561C9.90251 8.80161 9.74171 8.85441 9.61931 8.84721C9.50411 8.84241 9.37211 8.84001 9.24251 8.84001C9.11052 8.84001 8.89692 8.89041 8.71692 9.08721C8.53692 9.28401 8.02812 9.76161 8.02812 10.7312C8.02812 11.7008 8.73372 12.6392 8.83212 12.7688C8.93051 12.9008 10.2217 14.8904 12.1993 15.7448C12.6697 15.9488 13.0369 16.0688 13.3225 16.16C13.7953 16.3112 14.2249 16.2896 14.5633 16.2392C14.9425 16.1816 15.7297 15.7616 15.8929 15.3032C16.0561 14.8424 16.0561 14.4488 16.0081 14.3672C15.9601 14.2856 15.8281 14.2376 15.6313 14.1368Z" fill="white"/>
</svg>
