<svg width="34" height="25" viewBox="0 0 34 25" fill="none" xmlns="http://www.w3.org/2000/svg">
<path d="M3.45026 21.2089C3.06338 21.0794 2.6677 21.1053 2.27202 21.1312C1.04981 21.2261 0.0122516 20.0088 0.0122516 18.9211C0.0210444 14.3627 0.0210444 9.79573 0.0210444 5.23738C0.0210444 4.22729 -0.0317128 3.2172 0.0298373 2.21575C0.117766 0.817162 1.02343 0.040171 2.21926 0.0229045C3.02821 0.0142713 3.84594 0.0142713 4.65489 0.0229045C5.57814 0.0315377 6.51898 0.0142713 7.44223 0.0142713C8.27755 0.0142713 9.12167 0.0229045 9.96578 0.0229045C10.889 0.0229045 11.8299 0.0229045 12.7531 0.0142713C13.7203 0.0142713 14.6963 0.0315377 15.6636 0.0229045C16.4549 0.0142713 17.2639 0.0142713 18.0552 0.0142713C18.9785 0.0229045 19.9105 0.0229045 20.8426 0.0142713C21.6603 0.0142713 22.4956 0.0142713 23.3222 0.00563803C24.219 0.00563803 25.1159 -0.0116284 26.0216 0.0142713C26.6986 0.040171 27.3845 0.0919704 28.0703 0.0315377C29.1782 -0.0720611 30.3477 0.981194 30.3828 2.25891C30.4004 2.77691 30.3828 3.2949 30.3828 3.81289C30.3301 8.9842 30.4356 14.1469 30.3213 19.3182C29.9696 20.57 29.187 21.1398 27.8065 21.1398C19.8666 21.1398 11.9266 21.1398 3.99542 21.1398C3.79319 21.1571 3.61733 21.1053 3.45026 21.2089ZM12.6036 6.2302C12.6828 5.17695 11.8123 4.10642 10.8011 3.90786C9.89544 3.72656 9.01615 3.83879 8.3391 4.55535C8.17204 4.73665 8.02256 4.76255 7.82911 4.58125C7.2312 4.03736 6.52777 3.81289 5.70124 3.85606C4.38231 3.91649 3.23044 5.36688 3.49423 6.6446C3.68767 7.58562 4.37352 8.16405 4.99781 8.79427C5.754 9.56263 6.53656 10.3051 7.30154 11.0648C7.74998 11.5137 8.26876 11.531 8.72599 11.0907C9.77234 10.072 10.8275 9.05327 11.8562 8.00865C12.3223 7.51655 12.63 6.94676 12.6036 6.2302ZM15.2327 10.6332C15.2327 12.7483 15.2327 14.8634 15.2327 16.9786C15.2327 17.1167 15.1624 17.3153 15.3206 17.3671C15.5668 17.4534 15.8394 17.4448 16.0944 17.3584C16.3406 17.2807 16.2791 17.0649 16.2791 16.8836C16.2791 12.6879 16.2791 8.48347 16.2791 4.28772C16.2791 3.86469 16.1296 3.7611 15.5053 3.77836C15.1272 3.78699 15.2239 4.08052 15.2239 4.29636C15.2327 6.4115 15.2327 8.51801 15.2327 10.6332ZM22.0736 7.48202C23.243 7.48202 24.4125 7.48202 25.5819 7.48202C25.9336 7.48202 26.1359 7.30072 26.1271 6.95539C26.1271 6.62733 25.9248 6.45466 25.5995 6.45466C23.287 6.45466 20.9745 6.44603 18.6619 6.45466C18.3278 6.45466 18.0464 6.5669 18.0376 6.96403C18.0288 7.30935 18.2487 7.48202 18.6883 7.48202C19.8226 7.48202 20.9481 7.48202 22.0736 7.48202ZM22.0999 12.3166C23.2254 12.3166 24.3509 12.3166 25.4764 12.3166C25.6347 12.3166 25.7929 12.3339 25.9336 12.213C26.1271 12.0576 26.1974 11.8504 26.1183 11.6346C26.0128 11.3324 25.7314 11.272 25.4412 11.272C23.1991 11.272 20.9657 11.272 18.7235 11.272C18.2575 11.272 18.0288 11.4447 18.0552 11.8073C18.0816 12.213 18.3542 12.308 18.7235 12.308C19.849 12.308 20.9745 12.3166 22.0999 12.3166ZM22.1351 9.89933C23.2342 9.89933 24.3333 9.89933 25.4324 9.89933C25.9073 9.89933 26.1447 9.71803 26.1447 9.38133C26.1447 9.02737 25.9248 8.86334 25.45 8.86334C23.2342 8.86334 21.0272 8.86334 18.8114 8.86334C18.275 8.86334 18.064 9.0101 18.0552 9.36407C18.0464 9.70939 18.275 9.88206 18.8026 9.89933C18.8905 9.89933 18.9785 9.89933 19.0664 9.89933C20.0776 9.89933 21.1063 9.89933 22.1351 9.89933ZM20.2886 13.7843C19.6907 13.7843 19.0928 13.7843 18.4949 13.7843C18.1871 13.7843 18.0464 13.9397 18.0464 14.2418C18.0464 14.5267 18.1256 14.7339 18.4509 14.7339C19.6467 14.7426 20.8426 14.7426 22.0384 14.7339C22.3637 14.7339 22.5308 14.5181 22.5308 14.1987C22.522 13.8792 22.3286 13.7843 22.0384 13.7929C21.4581 13.7843 20.8689 13.7843 20.2886 13.7843Z" fill="#A02820"/>
<path d="M3.45032 21.2089C3.60859 21.1053 3.79324 21.1571 3.9691 21.1571C11.9091 21.1571 19.849 21.1571 27.7802 21.1571C29.1607 21.1571 29.9345 20.5873 30.295 19.3355C30.4005 19.4736 30.3477 19.6376 30.3477 19.793C30.3565 21.511 30.3565 23.2204 30.3565 24.9384C30.207 25.0334 30.04 24.9902 29.8817 24.9902C21.9242 24.9902 13.9666 24.9902 6.00905 24.9902C4.39995 24.9902 3.45032 24.0492 3.44153 22.4693C3.45911 22.0463 3.45032 21.6233 3.45032 21.2089Z" fill="#50971B"/>
<path d="M30.3654 24.9298C30.3654 23.2118 30.3566 21.5024 30.3566 19.7844C30.3566 19.629 30.4006 19.465 30.3038 19.3268C30.4181 14.1555 30.3126 8.99284 30.3654 3.82153C30.6995 3.82153 31.0424 3.82153 31.3766 3.82153C32.845 3.83016 33.7946 4.75392 33.7946 6.19567C33.7946 9.97703 33.7946 13.7497 33.7946 17.5311C33.7946 18.9383 33.7594 20.3455 33.8034 21.7528C33.8473 23.5226 32.3526 25.1456 30.3654 24.9298Z" fill="#72BF39"/>
<path d="M12.6035 6.2302C12.6299 6.94676 12.3221 7.51656 11.8561 7.99138C10.8274 9.03601 9.77221 10.0547 8.72586 11.0735C8.26863 11.5224 7.74985 11.4965 7.30141 11.0476C6.53643 10.2878 5.75387 9.54537 4.99768 8.77701C4.37339 8.14678 3.68754 7.57699 3.4941 6.62733C3.23032 5.35825 4.37339 3.89923 5.70111 3.8388C6.52764 3.80426 7.23107 4.02009 7.82899 4.56399C8.03122 4.75392 8.17191 4.71939 8.33897 4.53809C9.02482 3.82153 9.9041 3.7093 10.801 3.8906C11.8034 4.09779 12.6826 5.17695 12.6035 6.2302Z" fill="white"/>
<path d="M15.2326 10.6332C15.2326 8.51801 15.2326 6.40287 15.2326 4.28772C15.2326 4.08053 15.1359 3.787 15.514 3.76973C16.1295 3.75246 16.279 3.85606 16.2878 4.27909C16.2878 8.47484 16.2878 12.6792 16.2878 16.875C16.2878 17.0563 16.3493 17.2721 16.1031 17.3498C15.8481 17.4275 15.5756 17.4361 15.3294 17.3584C15.1711 17.3066 15.2414 17.0995 15.2414 16.97C15.2326 14.8634 15.2326 12.7483 15.2326 10.6332Z" fill="white"/>
<path d="M22.0736 7.48202C20.9482 7.48202 19.8227 7.48202 18.6972 7.48202C18.2575 7.48202 18.0465 7.30935 18.0465 6.96403C18.0553 6.5669 18.3367 6.45467 18.6708 6.45467C20.9833 6.44603 23.2959 6.44603 25.6084 6.45467C25.9337 6.45467 26.136 6.62733 26.136 6.95539C26.136 7.30072 25.9425 7.48202 25.5908 7.48202C24.4125 7.48202 23.2431 7.48202 22.0736 7.48202Z" fill="white"/>
<path d="M22.1001 12.3166C20.9746 12.3166 19.8491 12.308 18.7237 12.3166C18.3544 12.3166 18.0818 12.2217 18.0554 11.8159C18.029 11.4533 18.2576 11.2807 18.7237 11.2807C20.9658 11.2807 23.1992 11.2807 25.4414 11.2807C25.7404 11.2807 26.013 11.3411 26.1185 11.6432C26.1976 11.8591 26.1273 12.0576 25.9338 12.2217C25.7931 12.3339 25.6349 12.3253 25.4766 12.3253C24.3511 12.3166 23.2256 12.3166 22.1001 12.3166Z" fill="white"/>
<path d="M22.1351 9.89933C21.1063 9.89933 20.0863 9.89933 19.0576 9.89933C18.9696 9.89933 18.8817 9.89933 18.7938 9.89933C18.275 9.88206 18.0376 9.7094 18.0464 9.36407C18.0552 9.00147 18.2662 8.86334 18.8026 8.86334C21.0184 8.86334 23.2254 8.86334 25.4412 8.86334C25.9248 8.86334 26.1358 9.02737 26.1358 9.38133C26.1358 9.71803 25.8984 9.89933 25.4236 9.89933C24.3333 9.89933 23.2342 9.89933 22.1351 9.89933Z" fill="white"/>
<path d="M20.2887 13.7843C20.869 13.7843 21.4581 13.7843 22.0385 13.7843C22.3286 13.7843 22.5221 13.8793 22.5309 14.1901C22.5397 14.5181 22.3638 14.7253 22.0385 14.7253C20.8426 14.7426 19.6468 14.734 18.451 14.7253C18.1256 14.7253 18.0465 14.5181 18.0465 14.2332C18.0465 13.9311 18.1872 13.7757 18.4949 13.7757C19.0929 13.7843 19.6908 13.7843 20.2887 13.7843Z" fill="white"/>
</svg>
