<svg width="24" height="25" viewBox="0 0 24 25" fill="none" xmlns="http://www.w3.org/2000/svg">
<path d="M12 24.5C18.6274 24.5 24 19.1274 24 12.5C24 5.87259 18.6274 0.500006 12 0.500006C5.37258 0.500006 0 5.87259 0 12.5C0 19.1274 5.37258 24.5 12 24.5Z" fill="#72BF39"/>
<path d="M17.8409 7.40469L15.6987 18.2094C15.6987 18.2094 15.3987 18.9594 14.5737 18.5984L9.62842 14.8063L7.82842 13.9391L4.80029 12.9219C4.80029 12.9219 4.33623 12.7578 4.28935 12.3969C4.24248 12.0359 4.81435 11.8438 4.81435 11.8438L16.8519 7.12344C16.8519 7.11875 17.8409 6.68282 17.8409 7.40469Z" fill="white"/>
<path d="M9.244 18.0875C9.244 18.0875 9.09868 18.0734 8.92056 17.5063C8.74243 16.9391 7.82837 13.9391 7.82837 13.9391L15.0987 9.32188C15.0987 9.32188 15.5206 9.06875 15.5018 9.32188C15.5018 9.32188 15.5768 9.36875 15.3518 9.575C15.1268 9.78594 9.64243 14.7172 9.64243 14.7172" fill="#D2E4F0"/>
<path d="M11.5222 16.2594L9.56753 18.0453C9.56753 18.0453 9.41284 18.1625 9.24878 18.0875L9.62378 14.7734" fill="#B5CFE4"/>
</svg>
