<svg width="16" height="20" viewBox="0 0 16 20" fill="none" xmlns="http://www.w3.org/2000/svg">
<path d="M7.55899 20C7.43153 20 7.3062 19.9673 7.19497 19.905C5.01282 18.688 3.19533 16.9101 1.93042 14.7554C0.665502 12.6006 -0.000936525 10.1471 9.87769e-07 7.64851C9.87769e-07 7.54639 0.000995471 7.44461 0.00298468 7.34316C0.0527149 5.08143 0.894647 3.17677 2.43977 1.83554C3.80635 0.651963 5.62399 0 7.55899 0C9.494 0 11.3111 0.651963 12.6762 1.83554C14.2228 3.17826 15.0663 5.08143 15.113 7.34316C15.113 7.44262 15.1165 7.54656 15.1165 7.64851C15.1178 10.1858 14.4303 12.6758 13.1273 14.8529C11.8624 16.9617 10.0684 18.7033 7.92302 19.905C7.81178 19.9673 7.68646 20 7.55899 20V20ZM7.55899 1.49191C5.98304 1.49191 4.51252 2.01407 3.41895 2.96293C2.19907 4.02019 1.53368 5.54591 1.49489 7.37499C1.49489 7.4655 1.49191 7.557 1.49191 7.64851C1.49117 9.81015 2.04944 11.9352 3.11252 13.8174C4.1756 15.6996 5.70734 17.2749 7.55899 18.3902C9.31881 17.3262 10.7918 15.8481 11.8497 14.0846C13.0133 12.1395 13.6273 9.91509 13.6261 7.64851C13.6261 7.557 13.6261 7.4655 13.6231 7.37499C13.5838 5.54591 12.9184 4.02019 11.699 2.96293C10.605 2.01407 9.13494 1.49191 7.55899 1.49191Z" fill="#72BF39"/>
<path d="M7.57837 12.3629C6.65067 12.3629 5.7438 12.0878 4.97244 11.5724C4.20108 11.057 3.59988 10.3245 3.24487 9.46738C2.88985 8.61029 2.79696 7.66718 2.97795 6.7573C3.15893 5.84742 3.60566 5.01165 4.26165 4.35566C4.91764 3.69968 5.75341 3.25294 6.66329 3.07196C7.57317 2.89097 8.51628 2.98386 9.37337 3.33888C10.2305 3.69389 10.963 4.29509 11.4784 5.06645C11.9938 5.83781 12.2689 6.74468 12.2689 7.67238C12.2676 8.91599 11.773 10.1083 10.8936 10.9877C10.0143 11.867 8.82198 12.3616 7.57837 12.3629V12.3629ZM7.57837 4.47423C6.94572 4.47423 6.32727 4.66184 5.80125 5.01334C5.27522 5.36483 4.86524 5.86442 4.62316 6.44893C4.38108 7.03343 4.31776 7.6766 4.44122 8.29709C4.56468 8.91758 4.86937 9.48752 5.31676 9.93484C5.76415 10.3822 6.33414 10.6868 6.95465 10.8101C7.57516 10.9335 8.21832 10.8701 8.80278 10.6279C9.38725 10.3857 9.88678 9.97567 10.2382 9.44959C10.5896 8.92351 10.7771 8.30504 10.777 7.67238C10.7756 6.82468 10.438 6.01213 9.83844 5.4129C9.23883 4.81367 8.42608 4.47665 7.57837 4.47572V4.47423Z" fill="#72BF39"/>
</svg>
