<svg width="20" height="20" viewBox="0 0 20 20" fill="none" xmlns="http://www.w3.org/2000/svg">
<path d="M17.1356 13.3333H6.93009C6.76076 13.3336 6.59636 13.2763 6.46391 13.1708C6.33146 13.0653 6.23883 12.9179 6.20124 12.7527L4.48283 5.26617C4.4577 5.15681 4.45754 5.04319 4.48239 4.93376C4.50724 4.82433 4.55644 4.72192 4.62634 4.63414C4.69624 4.54636 4.78504 4.47547 4.88613 4.42675C4.98721 4.37803 5.09798 4.35273 5.21019 4.35274H18.8555C18.9678 4.35251 19.0787 4.37764 19.18 4.42626C19.2813 4.47488 19.3703 4.54574 19.4403 4.63355C19.5104 4.72136 19.5597 4.82386 19.5847 4.9334C19.6096 5.04294 19.6095 5.15669 19.5843 5.26617L17.8629 12.7527C17.8254 12.9176 17.733 13.0648 17.6008 13.1703C17.4687 13.2758 17.3046 13.3333 17.1356 13.3333ZM7.52412 11.8408H16.5415L17.9182 5.84677H6.14701L7.52412 11.8408Z" fill="#72BF39"/>
<path d="M8.39046 20C7.82487 20 7.27197 19.8323 6.8017 19.5181C6.33142 19.2038 5.96489 18.7572 5.74844 18.2347C5.532 17.7121 5.47537 17.1371 5.58571 16.5824C5.69605 16.0277 5.96841 15.5181 6.36835 15.1182C6.76829 14.7182 7.27784 14.4459 7.83256 14.3355C8.38729 14.2252 8.96228 14.2818 9.48482 14.4983C10.0074 14.7147 10.454 15.0813 10.7682 15.5515C11.0824 16.0218 11.2502 16.5747 11.2502 17.1403C11.2494 17.8985 10.9478 18.6254 10.4117 19.1615C9.87558 19.6977 9.14866 19.9992 8.39046 20ZM8.39046 15.7736C8.12004 15.7736 7.8557 15.8538 7.63086 16.0041C7.40602 16.1543 7.23078 16.3679 7.12732 16.6177C7.02386 16.8676 6.99681 17.1425 7.04961 17.4077C7.1024 17.6729 7.23266 17.9165 7.42391 18.1077C7.61516 18.2989 7.85881 18.4291 8.12405 18.4817C8.38929 18.5344 8.66419 18.5073 8.914 18.4037C9.16381 18.3002 9.3773 18.1249 9.52746 17.9C9.67763 17.6751 9.75773 17.4107 9.75763 17.1403C9.75723 16.7779 9.61305 16.4304 9.35673 16.1742C9.10041 15.9179 8.75289 15.7739 8.39046 15.7736Z" fill="#72BF39"/>
<path d="M15.6751 20C15.1095 20 14.5566 19.8323 14.0864 19.5181C13.6161 19.2038 13.2496 18.7572 13.0331 18.2347C12.8167 17.7121 12.76 17.1371 12.8704 16.5824C12.9807 16.0277 13.2531 15.5181 13.653 15.1182C14.053 14.7183 14.5625 14.4459 15.1172 14.3356C15.672 14.2252 16.247 14.2818 16.7695 14.4983C17.292 14.7147 17.7387 15.0813 18.0529 15.5515C18.3671 16.0218 18.5348 16.5747 18.5348 17.1403C18.5341 17.8985 18.2325 18.6254 17.6964 19.1615C17.1603 19.6977 16.4333 19.9992 15.6751 20ZM15.6751 15.7736C15.4047 15.7736 15.1404 15.8538 14.9155 16.0041C14.6907 16.1543 14.5155 16.3679 14.412 16.6177C14.3085 16.8676 14.2815 17.1425 14.3343 17.4077C14.3871 17.6729 14.5173 17.9165 14.7086 18.1077C14.8998 18.2989 15.1435 18.4291 15.4087 18.4818C15.674 18.5345 15.9489 18.5073 16.1987 18.4038C16.4485 18.3002 16.662 18.1249 16.8121 17.9C16.9623 17.6751 17.0424 17.4107 17.0423 17.1403C17.0419 16.7779 16.8977 16.4304 16.6414 16.1742C16.3851 15.918 16.0376 15.7739 15.6751 15.7736Z" fill="#72BF39"/>
<path d="M5.21023 5.84527C5.05358 5.84526 4.90091 5.79595 4.77385 5.70434C4.64678 5.61272 4.55177 5.48345 4.50227 5.33483L3.22317 1.49254H0.862967C0.665045 1.49254 0.475229 1.41391 0.335276 1.27396C0.195324 1.13401 0.116699 0.944191 0.116699 0.746269C0.116699 0.548346 0.195324 0.35853 0.335276 0.218577C0.475229 0.0786245 0.665045 0 0.862967 0H3.76346C3.92011 1.44937e-05 4.07278 0.049322 4.19985 0.140937C4.32691 0.232551 4.42192 0.361827 4.47142 0.510448L5.92068 4.86318C5.95804 4.97535 5.96821 5.09479 5.95036 5.21166C5.93252 5.32854 5.88716 5.4395 5.81802 5.5354C5.74888 5.63131 5.65795 5.70941 5.55271 5.76329C5.44748 5.81716 5.33094 5.84526 5.21272 5.84527H5.21023Z" fill="#72BF39"/>
</svg>
