<svg width="24" height="25" viewBox="0 0 24 25" fill="none" xmlns="http://www.w3.org/2000/svg">
<g clip-path="url(#clip0_165_30)">
<circle cx="12" cy="12.5" r="11.5" stroke="#A02820"/>
<path fill-rule="evenodd" clip-rule="evenodd" d="M13.2719 9.19382C13.7002 9.28508 14.0285 9.44785 14.309 9.71047C14.6699 10.0513 14.8677 10.4638 14.9547 11.0564C15.0135 11.4428 14.9894 11.5947 14.8524 11.7207C14.7242 11.8379 14.4872 11.8422 14.3437 11.7316C14.2394 11.6533 14.2067 11.5708 14.1828 11.3472C14.1546 11.0497 14.1024 10.8414 14.0132 10.6482C13.8219 10.238 13.4848 10.0252 12.9152 9.95574C12.6478 9.92308 12.5674 9.89283 12.4804 9.79074C12.3216 9.60185 12.3826 9.29574 12.6021 9.18282C12.6847 9.14157 12.7195 9.13727 12.9022 9.1481C13.0154 9.15463 13.1828 9.17422 13.2719 9.19382ZM12.8088 7.55465C14.1287 7.74783 15.1505 8.36005 15.8203 9.35435C16.1965 9.91449 16.4313 10.5723 16.5117 11.2778C16.5399 11.5361 16.5399 12.0072 16.5095 12.0854C16.4811 12.1592 16.3899 12.259 16.3117 12.3003C16.2269 12.3438 16.0465 12.3393 15.9464 12.2872C15.779 12.2025 15.729 12.0679 15.729 11.7032C15.729 11.141 15.5832 10.5482 15.3311 10.0879C15.0441 9.56249 14.6266 9.12833 14.1178 8.82652C13.6808 8.56596 13.035 8.37277 12.4458 8.32499C12.2327 8.30763 12.1153 8.26415 12.0349 8.17082C11.911 8.02971 11.8979 7.83858 12.0022 7.68012C12.1152 7.5048 12.2891 7.47644 12.8088 7.55465ZM7.68834 6.21522C7.76448 6.24135 7.88188 6.30202 7.94925 6.34551C8.36227 6.61913 9.51245 8.08883 9.88869 8.82257C10.1039 9.2416 10.1757 9.55201 10.1083 9.78215C10.0387 10.0296 9.92358 10.1599 9.40812 10.5745C9.20153 10.7416 9.008 10.9131 8.97758 10.9588C8.89937 11.0717 8.8363 11.2931 8.8363 11.4495C8.83853 11.812 9.07331 12.4699 9.382 12.9758C9.62108 13.3687 10.0494 13.8723 10.4734 14.2588C10.9713 14.7148 11.4105 15.0252 11.9063 15.2705C12.5435 15.5874 12.9326 15.6677 13.2174 15.5353C13.2891 15.5027 13.3652 15.4593 13.3891 15.4398C13.4108 15.4202 13.5783 15.2161 13.7609 14.9903C14.113 14.5474 14.1935 14.4757 14.435 14.3932C14.7416 14.2891 15.0546 14.3172 15.37 14.4779C15.6092 14.6017 16.131 14.9252 16.4679 15.1596C16.9115 15.47 17.8594 16.2429 17.9878 16.3971C18.2138 16.675 18.253 17.031 18.1009 17.4241C17.94 17.8386 17.3139 18.6158 16.8768 18.9481C16.4811 19.2476 16.2006 19.3626 15.8309 19.38C15.5265 19.3951 15.4004 19.3692 15.0112 19.2085C11.9587 17.9515 9.52139 16.0759 7.58625 13.4988C6.57528 12.1528 5.80545 10.7568 5.27934 9.3088C4.97272 8.46438 4.95759 8.09743 5.20973 7.66533C5.31853 7.48297 5.78156 7.03146 6.11861 6.77966C6.67961 6.36286 6.93828 6.20869 7.14487 6.16521C7.28616 6.13479 7.53194 6.15868 7.68834 6.21522ZM12.6588 5.98079C13.4068 6.07412 14.0111 6.25424 14.6744 6.57788C15.3266 6.89705 15.7441 7.19887 16.2964 7.74801C16.8139 8.2669 17.1009 8.6598 17.4053 9.26979C17.8293 10.1207 18.0706 11.1326 18.1119 12.2461C18.1272 12.626 18.1162 12.7107 18.0292 12.8193C17.864 13.0299 17.5009 12.9952 17.3769 12.7585C17.3377 12.6803 17.3269 12.6131 17.3139 12.3091C17.292 11.8422 17.2595 11.5406 17.1942 11.1802C16.9376 9.76685 16.2592 8.63797 15.1764 7.8281C14.2741 7.15074 13.3413 6.82074 12.1195 6.74907C11.7063 6.72518 11.6346 6.71005 11.5411 6.63838C11.3672 6.50157 11.3584 6.18033 11.5258 6.03046C11.6281 5.93713 11.6997 5.92407 12.0541 5.9349C12.2393 5.9416 12.511 5.96343 12.6588 5.98079ZM12 1.50001C18.0751 1.50001 23 6.42491 23 12.5C23 18.5751 18.0751 23.5 12 23.5C5.92491 23.5 1 18.5751 1 12.5C1 6.42491 5.92491 1.50001 12 1.50001Z" fill="#A02820"/>
</g>
<defs>
<clipPath id="clip0_165_30">
<rect width="24" height="24" fill="white" transform="translate(0 0.500006)"/>
</clipPath>
</defs>
</svg>
