<svg width="40" height="37" viewBox="0 0 40 37" fill="none" xmlns="http://www.w3.org/2000/svg">
<path d="M20.0001 5.02197C21.1221 5.02197 22.2381 5.72997 23.0881 7.14597L34.9121 26.854C36.6141 29.684 35.3001 32 32.0001 32H8.0001C4.7001 32 3.3861 29.682 5.0881 26.854L16.9121 7.14597C17.7621 5.72997 18.8781 5.02197 20.0001 5.02197ZM20.0001 1.02197C17.4081 1.02197 15.0361 2.50197 13.4821 5.08397L1.6581 24.796C0.0861039 27.414 -0.085896 30.206 1.1881 32.456C2.4621 34.706 4.9461 36 8.0001 36H32.0001C35.0541 36 37.5401 34.708 38.8121 32.458C40.0841 30.208 39.9141 27.416 38.3421 24.798L26.5181 5.08997C24.9641 2.50197 22.5921 1.02197 20.0001 1.02197Z" fill="#72BF39"/>
<path d="M23 27.496C23 27.496 21.578 28.218 20.85 27.86C20.126 27.492 19.982 26.778 20.392 25.556L21.204 23.114C22.01 20.672 20.962 18.962 19.04 18.852C16.524 18.712 15 20.504 15 20.504C15 20.504 16.42 19.774 17.15 20.14C17.874 20.508 18.014 21.222 17.608 22.444L16.796 24.886C15.986 27.328 17.034 29.034 18.96 29.148C21.476 29.29 23 27.496 23 27.496Z" fill="#72BF39"/>
<path d="M19.9999 16.6019C21.437 16.6019 22.6019 15.437 22.6019 13.9999C22.6019 12.5629 21.437 11.3979 19.9999 11.3979C18.5629 11.3979 17.3979 12.5629 17.3979 13.9999C17.3979 15.437 18.5629 16.6019 19.9999 16.6019Z" fill="#72BF39"/>
</svg>
