<svg width="200.99999999999997" height="200.99999999999997" xmlns="http://www.w3.org/2000/svg">

 <g>
  <title>background</title>
  <rect fill="none" id="canvas_background" height="402" width="582" y="-1" x="-1"/>
 </g>
 <g>
  <title>Layer 1</title>
  <rect fill="#2dc100" id="svg_1" width="201" ry="19" rx="19" height="201" class="fil0"/>
  <path fill="#fefefe" id="svg_3" d="m107,34c37,5 54,23 59,60c0,0 0,0 0,0c0,4 0,8 4,8c4,0 4,-3 4,-6c0,0 0,-1 0,-2c1,-35 -30,-67 -66,-68c-3,0 -9,-2 -9,4c0,4 5,3 8,4z" class="fil1"/>
  <path fill="#fefefe" id="svg_4" d="m114,44c-4,-1 -8,-2 -9,2c-1,6 4,5 8,6c23,5 31,13 35,36c0,1 0,2 0,3c0,2 1,5 5,4c2,0 3,-1 3,-3c0,-1 0,-3 0,-4c0,-22 -19,-42 -42,-44z" class="fil1"/>
  <path fill="#fefefe" id="svg_5" d="m116,61c-2,0 -5,1 -5,3c-2,4 1,5 4,5c9,2 14,7 15,16c0,2 1,3 1,4c1,0 2,1 4,1c0,0 1,-1 1,-1c2,-1 2,-3 2,-5c0,-11 -12,-23 -22,-23z" class="fil1"/>
  <path fill="#fefefe" id="svg_6" d="m164,134c-5,-4 -10,-7 -14,-10c-10,-7 -19,-7 -27,3c-4,6 -9,7 -15,4c-17,-7 -30,-19 -37,-35c-1,-3 -2,-5 -2,-8c-1,-4 1,-8 6,-11c4,-3 8,-6 8,-12c0,-8 -20,-34 -27,-37c-3,-1 -6,-1 -10,0c-18,6 -25,21 -18,38c4,9 9,18 14,26c22,37 54,64 96,81c3,2 6,2 7,3c12,0 26,-11 30,-22c3,-11 -5,-15 -11,-20z" class="fil1"/>
 </g>
</svg>