<svg width="40" height="20" viewBox="0 0 40 20" fill="none" xmlns="http://www.w3.org/2000/svg">
<path d="M23.4231 16.3783H2.21025C1.62406 16.3783 1.06187 16.1451 0.647368 15.7299C0.232865 15.3147 0 14.7515 0 14.1643V13.9374H1.10513V14.1643C1.10513 14.4579 1.22156 14.7395 1.42881 14.9471C1.63606 15.1547 1.91715 15.2713 2.21025 15.2713H23.4231C23.7162 15.2713 23.9973 15.1547 24.2046 14.9471C24.4118 14.7395 24.5283 14.4579 24.5283 14.1643V2.21404C24.5283 1.92044 24.4118 1.63886 24.2046 1.43126C23.9973 1.22365 23.7162 1.10702 23.4231 1.10702H11.8193V0H23.4231C24.0093 0 24.5715 0.233264 24.986 0.648477C25.4005 1.06369 25.6334 1.62684 25.6334 2.21404V14.1643C25.6334 14.7515 25.4005 15.3147 24.986 15.7299C24.5715 16.1451 24.0093 16.3783 23.4231 16.3783Z" transform="translate(14.3666 2.99449)" fill="#979797"/>
<path d="M2.80702 0H0V6.71961H2.80702V0Z" transform="translate(26.1859 7.51666)" fill="#FF5F00"/>
<path d="M6.74679 4.27863C6.75858 5.39925 6.32583 6.47873 5.5436 7.27995C4.76137 8.08116 3.69363 8.53858 2.57494 8.55172V8.55172C1.63741 8.55242 0.728201 8.22994 0 7.63843C0.889269 6.90571 1.45168 5.84925 1.56358 4.70128C1.67549 3.55332 1.32773 2.40782 0.596766 1.51662C0.419193 1.29539 0.219203 1.0932 0 0.913292C0.728201 0.321788 1.63741 -0.000695732 2.57494 1.12702e-06C3.69367 0.0160477 4.76054 0.475147 5.54231 1.27692C6.32407 2.0787 6.75713 3.15792 6.74679 4.27863V4.27863Z" transform="translate(27.175 6.60336)" fill="#F79E1B"/>
<path d="M0 0V1.70481C0.350157 1.56684 0.679352 1.38053 0.978036 1.1513C0.585974 0.82915 0.254725 0.439218 0 0Z" transform="translate(26.1859 13.1071)" fill="#EB001B"/>
<path d="M0.978036 0.553509C0.679352 0.324275 0.350157 0.13797 0 0V1.71034C0.256102 1.2705 0.587113 0.878978 0.978036 0.553509V0.553509Z" transform="translate(26.1859 6.96313)" fill="#EB001B"/>
<path d="M23.4231 16.3783H2.21025C1.62406 16.3783 1.06187 16.1451 0.647367 15.7299C0.232865 15.3147 0 14.7515 0 14.1643V2.21404C0 1.62684 0.232865 1.06369 0.647367 0.648477C1.06187 0.233264 1.62406 0 2.21025 0L23.4231 0C24.0093 0 24.5715 0.233264 24.986 0.648477C25.4005 1.06369 25.6334 1.62684 25.6334 2.21404V14.1643C25.6334 14.7515 25.4005 15.3147 24.986 15.7299C24.5715 16.1451 24.0093 16.3783 23.4231 16.3783ZM2.21025 1.10702C1.91715 1.10702 1.63606 1.22365 1.42881 1.43126C1.22156 1.63886 1.10513 1.92044 1.10513 2.21404V14.1643C1.10513 14.4579 1.22156 14.7395 1.42881 14.9471C1.63606 15.1547 1.91715 15.2713 2.21025 15.2713H23.4231C23.7162 15.2713 23.9973 15.1547 24.2046 14.9471C24.4118 14.7395 24.5283 14.4579 24.5283 14.1643V2.21404C24.5283 1.92044 24.4118 1.63886 24.2046 1.43126C23.9973 1.22365 23.7162 1.10702 23.4231 1.10702H2.21025Z" fill="#979797"/>
<path d="M5.60851 0.0940967L4.70783 5.441H6.15002L7.0507 0.0940967H5.60851ZM3.49772 0.0940967L2.11631 3.77493L1.95055 2.98342L1.91739 2.80629C1.61941 2.19176 1.18234 1.65538 0.640972 1.23986C0.436497 1.08272 0.222423 0.938527 0 0.808124L1.24327 5.441H2.74624L5.03937 0.0940967H3.49772ZM9.11728 1.5775C9.11728 0.974177 10.5208 1.05167 11.1341 1.38377L11.3441 0.232474C10.9256 0.0891227 10.4877 0.010725 10.0456 0C9.33278 0 7.63641 0.30443 7.63641 1.77123C7.63641 3.23803 9.62564 3.17161 9.62564 3.89671C9.62564 4.62181 7.84086 4.48896 7.24962 4.03509L7.03412 5.2362C7.56103 5.44636 8.12481 5.54802 8.69181 5.5351C9.66984 5.5351 11.1562 5.04247 11.1562 3.70851C11.1562 2.37456 9.11728 2.21404 9.11728 1.5775ZM14.991 0.0940967H13.8362C13.698 0.0835342 13.5601 0.116206 13.4413 0.187597C13.3225 0.258988 13.2288 0.365574 13.1731 0.492624L11.0236 5.441H12.5266L12.825 4.64948H14.654L14.8253 5.441H16.1459L14.991 0.0940967ZM13.2394 3.55353L13.9964 1.54983L14.4219 3.55353H13.2394Z" transform="translate(5.06702 5.5351)" fill="#005CA9"/>
<path d="M3.03357 0.489092C3.00144 0.334628 2.91123 0.198463 2.78161 0.108814C2.652 0.0191639 2.49292 -0.017099 2.33734 0.00753906H0.0276282L0 0.0961005C0.789323 0.28956 1.53042 0.643784 2.1771 1.1367C2.77788 1.59108 3.24549 2.19907 3.53087 2.89686L3.03357 0.489092Z" transform="translate(3.53088 5.6438)" fill="#F7A823"/>
</svg>
